# xmcd CD database file
#
# Track frame offsets:
#	150
#	27877
#	58412
#	83540
#	107887
#	137472
#	150820
#
# Disc length: 2365 seconds
#
# Revision: 0
# Processed by: cddbd v1.5.2PL0 Copyright (c) Steve Scherf et al.
# Submitted via: CDex 1.70beta2
#
DISCID=4a093b07
DTITLE=Angel Canales - Un sentimiento del latino en Nueva York
DYEAR=1984
DGENRE=Salsa
TTITLE0=El sentimiento del latino en Nueva York
TTITLE1=No encontraras quien te haga el amor como yo
TTITLE2=nostalgia
TTITLE3=Panama Soberana
TTITLE4=Soy del Monte
TTITLE5=Dos Gardenias
TTITLE6=La Humanidad
EXTD=YEAR: 1984
EXTT0=
EXTT1=
EXTT2=
EXTT3=
EXTT4=
EXTT5=
EXTT6=
PLAYORDER=
